<svg xmlns="http://www.w3.org/2000/svg" xmlns:xlink="http://www.w3.org/1999/xlink" width="500" zoomAndPan="magnify" viewBox="0 0 375 374.999991" height="500" preserveAspectRatio="xMidYMid meet" version="1.0"><defs><g/><clipPath id="8967dfc982"><path d="M 42 153.949219 L 110 153.949219 L 110 220.699219 L 42 220.699219 Z M 42 153.949219 " clip-rule="nonzero"/></clipPath><clipPath id="b3820b5320"><path d="M 51 153.949219 L 102 153.949219 L 102 220.699219 L 51 220.699219 Z M 51 153.949219 " clip-rule="nonzero"/></clipPath><clipPath id="8200d20f76"><path d="M 65 153.949219 L 87 153.949219 L 87 220.699219 L 65 220.699219 Z M 65 153.949219 " clip-rule="nonzero"/></clipPath><clipPath id="894d72238f"><path d="M 37.5 177 L 113 177 L 113 197 L 37.5 197 Z M 37.5 177 " clip-rule="nonzero"/></clipPath></defs><g clip-path="url(#8967dfc982)"><path fill="#ffffff" d="M 76.308594 221.050781 C 57.808594 221.050781 42.757812 206 42.757812 187.5 C 42.757812 169 57.808594 153.945312 76.308594 153.945312 C 94.808594 153.945312 109.863281 169 109.863281 187.5 C 109.863281 206 94.808594 221.050781 76.308594 221.050781 Z M 76.308594 156.4375 C 59.179688 156.4375 45.246094 170.371094 45.246094 187.5 C 45.246094 204.628906 59.179688 218.5625 76.308594 218.5625 C 93.4375 218.5625 107.371094 204.628906 107.371094 187.5 C 107.371094 170.371094 93.4375 156.4375 76.308594 156.4375 Z M 76.308594 156.4375 " fill-opacity="1" fill-rule="nonzero"/></g><path fill="#ffffff" d="M 76.308594 177.203125 C 66.980469 177.203125 58 173.273438 51.664062 166.421875 L 53.496094 164.734375 C 59.359375 171.078125 67.675781 174.714844 76.308594 174.714844 C 84.945312 174.714844 93.257812 171.074219 99.125 164.730469 L 100.953125 166.421875 C 94.617188 173.273438 85.636719 177.203125 76.308594 177.203125 Z M 76.308594 177.203125 " fill-opacity="1" fill-rule="nonzero"/><path fill="#ffffff" d="M 53.496094 210.394531 L 51.667969 208.703125 C 58 201.851562 66.984375 197.921875 76.308594 197.921875 C 85.636719 197.921875 94.617188 201.851562 100.953125 208.703125 L 99.125 210.394531 C 93.261719 204.050781 84.945312 200.410156 76.308594 200.410156 C 67.675781 200.410156 59.359375 204.050781 53.496094 210.394531 Z M 53.496094 210.394531 " fill-opacity="1" fill-rule="nonzero"/><g clip-path="url(#b3820b5320)"><path fill="#ffffff" d="M 76.308594 221.050781 C 69.617188 221.050781 63.351562 217.511719 58.667969 211.078125 C 54.070312 204.765625 51.539062 196.390625 51.539062 187.5 C 51.539062 178.609375 54.070312 170.234375 58.667969 163.921875 C 63.351562 157.488281 69.617188 153.945312 76.308594 153.945312 C 83 153.945312 89.265625 157.488281 93.949219 163.921875 C 98.546875 170.234375 101.078125 178.609375 101.078125 187.5 C 101.078125 196.390625 98.546875 204.765625 93.949219 211.078125 C 89.265625 217.511719 83 221.050781 76.308594 221.050781 Z M 76.308594 156.4375 C 64.023438 156.4375 54.03125 170.371094 54.03125 187.5 C 54.03125 204.628906 64.023438 218.5625 76.308594 218.5625 C 88.59375 218.5625 98.589844 204.628906 98.589844 187.5 C 98.589844 170.371094 88.59375 156.4375 76.308594 156.4375 Z M 76.308594 156.4375 " fill-opacity="1" fill-rule="nonzero"/></g><g clip-path="url(#8200d20f76)"><path fill="#ffffff" d="M 76.308594 221.050781 C 73.230469 221.050781 70.597656 217.464844 68.6875 210.683594 C 66.945312 204.472656 65.984375 196.242188 65.984375 187.5 C 65.984375 178.757812 66.945312 170.527344 68.6875 164.316406 C 70.597656 157.53125 73.230469 153.945312 76.308594 153.945312 C 79.386719 153.945312 82.023438 157.53125 83.929688 164.316406 C 85.675781 170.527344 86.636719 178.757812 86.636719 187.5 C 86.636719 196.242188 85.675781 204.472656 83.929688 210.683594 C 82.023438 217.464844 79.386719 221.050781 76.308594 221.050781 Z M 76.308594 156.4375 C 73.035156 156.4375 68.472656 168.253906 68.472656 187.5 C 68.472656 206.746094 73.035156 218.5625 76.308594 218.5625 C 79.582031 218.5625 84.144531 206.746094 84.144531 187.5 C 84.144531 168.253906 79.582031 156.4375 76.308594 156.4375 Z M 76.308594 156.4375 " fill-opacity="1" fill-rule="nonzero"/></g><path fill="#ffffff" d="M 110.789062 194.183594 C 109.507812 195.605469 40.613281 195.808594 39.332031 194.183594 C 38.050781 192.5625 38.050781 180.792969 39.332031 179.167969 C 40.613281 177.546875 109.140625 177.953125 110.789062 179.167969 C 112.4375 180.386719 112.070312 192.765625 110.789062 194.183594 Z M 110.789062 194.183594 " fill-opacity="1" fill-rule="nonzero"/><g clip-path="url(#894d72238f)"><path fill="#051d40" d="M 73.3125 196.074219 C 64.402344 196.074219 56.183594 195.976562 50.175781 195.796875 C 39.398438 195.476562 39.050781 195.035156 38.746094 194.648438 C 37.703125 193.328125 37.625 188.214844 37.625 186.675781 C 37.625 185.140625 37.703125 180.027344 38.746094 178.707031 C 39.058594 178.3125 39.382812 177.902344 49.414062 177.605469 C 55.023438 177.441406 62.566406 177.351562 71.234375 177.351562 C 80.644531 177.351562 90.285156 177.457031 97.6875 177.644531 C 110.410156 177.960938 110.925781 178.34375 111.234375 178.570312 C 111.667969 178.890625 112.203125 179.613281 112.480469 182.375 C 112.871094 186.285156 112.5625 193.335938 111.34375 194.683594 C 111.039062 195.023438 110.660156 195.445312 98.613281 195.777344 C 91.792969 195.964844 82.570312 196.074219 73.3125 196.074219 Z M 39.851562 193.617188 C 41.367188 194.089844 52.304688 194.578125 73.3125 194.578125 C 92.335938 194.578125 108.355469 194.148438 110.296875 193.59375 C 110.632812 192.976562 111.085938 190.394531 111.140625 186.664062 C 111.199219 182.601562 110.742188 180.257812 110.378906 179.804688 C 108.542969 179.28125 90.800781 178.84375 71.234375 178.84375 C 51.433594 178.84375 41.308594 179.285156 39.851562 179.734375 C 39.527344 180.371094 39.117188 182.777344 39.117188 186.675781 C 39.117188 190.574219 39.527344 192.984375 39.851562 193.617188 Z M 39.851562 193.617188 " fill-opacity="1" fill-rule="nonzero"/></g><path fill="#051d40" d="M 110.789062 179.167969 C 110.308594 178.8125 104.136719 178.527344 95.601562 178.339844 L 95.601562 195.105469 C 104.207031 194.914062 110.414062 194.601562 110.789062 194.183594 C 112.070312 192.765625 112.4375 180.386719 110.789062 179.167969 Z M 110.789062 179.167969 " fill-opacity="1" fill-rule="nonzero"/><path fill="#051d40" d="M 94.851562 195.867188 L 94.851562 177.578125 L 95.617188 177.59375 C 110.351562 177.917969 110.925781 178.339844 111.234375 178.570312 C 111.667969 178.890625 112.203125 179.613281 112.480469 182.375 C 112.871094 186.285156 112.5625 193.335938 111.34375 194.683594 C 111.027344 195.035156 110.59375 195.519531 95.617188 195.851562 Z M 96.347656 179.105469 L 96.347656 194.339844 C 107.457031 194.078125 109.808594 193.714844 110.296875 193.589844 C 110.632812 192.96875 111.085938 190.390625 111.140625 186.664062 C 111.199219 182.609375 110.742188 180.265625 110.378906 179.808594 C 109.976562 179.703125 107.808594 179.367188 96.347656 179.105469 Z M 96.347656 179.105469 " fill-opacity="1" fill-rule="nonzero"/><path fill="#051d40" d="M 51.355469 191.515625 C 51.050781 191.515625 50.777344 191.328125 50.664062 191.046875 L 48.835938 186.5 L 46.816406 191.070312 C 46.695312 191.339844 46.429688 191.515625 46.132812 191.515625 C 46.128906 191.515625 46.128906 191.515625 46.125 191.515625 C 45.828125 191.511719 45.558594 191.332031 45.445312 191.054688 L 42.617188 184.285156 C 42.460938 183.90625 42.640625 183.46875 43.019531 183.308594 C 43.398438 183.152344 43.839844 183.328125 43.996094 183.710938 L 46.152344 188.875 L 48.1875 184.277344 C 48.304688 184.007812 48.574219 183.832031 48.871094 183.832031 C 48.875 183.832031 48.878906 183.832031 48.882812 183.832031 C 49.183594 183.835938 49.449219 184.023438 49.5625 184.300781 L 51.300781 188.628906 L 52.976562 183.753906 C 53.109375 183.367188 53.535156 183.15625 53.925781 183.292969 C 54.316406 183.425781 54.523438 183.851562 54.390625 184.242188 L 52.0625 191.011719 C 51.960938 191.304688 51.6875 191.507812 51.375 191.515625 C 51.367188 191.515625 51.363281 191.515625 51.355469 191.515625 Z M 51.355469 191.515625 " fill-opacity="1" fill-rule="nonzero"/><path fill="#051d40" d="M 64.898438 191.515625 C 64.597656 191.515625 64.320312 191.328125 64.207031 191.046875 L 62.378906 186.5 L 60.359375 191.070312 C 60.238281 191.34375 59.960938 191.507812 59.667969 191.515625 C 59.371094 191.511719 59.101562 191.332031 58.988281 191.054688 L 56.164062 184.285156 C 56.003906 183.90625 56.183594 183.46875 56.5625 183.308594 C 56.945312 183.152344 57.382812 183.328125 57.542969 183.710938 L 59.699219 188.875 L 61.730469 184.277344 C 61.851562 184.007812 62.117188 183.832031 62.414062 183.832031 C 62.417969 183.832031 62.421875 183.832031 62.425781 183.832031 C 62.726562 183.835938 62.996094 184.023438 63.105469 184.300781 L 64.84375 188.628906 L 66.519531 183.753906 C 66.65625 183.367188 67.078125 183.15625 67.46875 183.292969 C 67.859375 183.425781 68.070312 183.851562 67.933594 184.242188 L 65.605469 191.011719 C 65.503906 191.304688 65.230469 191.507812 64.917969 191.515625 C 64.914062 191.515625 64.90625 191.515625 64.898438 191.515625 Z M 64.898438 191.515625 " fill-opacity="1" fill-rule="nonzero"/><path fill="#051d40" d="M 78.445312 191.515625 C 78.140625 191.515625 77.863281 191.328125 77.75 191.046875 L 75.925781 186.5 L 73.90625 191.070312 C 73.785156 191.34375 73.511719 191.507812 73.214844 191.515625 C 72.914062 191.511719 72.648438 191.332031 72.53125 191.054688 L 69.707031 184.285156 C 69.546875 183.90625 69.726562 183.46875 70.109375 183.308594 C 70.488281 183.152344 70.925781 183.328125 71.085938 183.710938 L 73.242188 188.875 L 75.273438 184.277344 C 75.394531 184.007812 75.664062 183.832031 75.957031 183.832031 C 75.960938 183.832031 75.964844 183.832031 75.96875 183.832031 C 76.269531 183.835938 76.539062 184.023438 76.652344 184.300781 L 78.390625 188.628906 L 80.066406 183.753906 C 80.199219 183.367188 80.625 183.15625 81.015625 183.292969 C 81.40625 183.425781 81.613281 183.851562 81.476562 184.242188 L 79.152344 191.011719 C 79.046875 191.304688 78.773438 191.507812 78.464844 191.515625 C 78.457031 191.515625 78.449219 191.515625 78.445312 191.515625 Z M 78.445312 191.515625 " fill-opacity="1" fill-rule="nonzero"/><path fill="#ffffff" d="M 104.253906 187.78125 C 102.304688 189.410156 99.394531 189.148438 97.765625 187.199219 C 96.132812 185.25 96.394531 182.339844 98.34375 180.710938 C 100.292969 179.082031 103.203125 179.34375 104.832031 181.292969 C 106.460938 183.242188 106.203125 186.152344 104.253906 187.78125 Z M 99.300781 181.859375 C 97.984375 182.957031 97.808594 184.925781 98.910156 186.242188 C 100.011719 187.558594 101.976562 187.734375 103.292969 186.632812 C 104.609375 185.535156 104.785156 183.566406 103.6875 182.25 C 102.585938 180.933594 100.621094 180.757812 99.300781 181.859375 Z M 99.300781 181.859375 " fill-opacity="1" fill-rule="nonzero"/><path fill="#ffffff" d="M 103.011719 187.847656 L 104.539062 186.570312 L 105.519531 187.746094 L 103.992188 189.023438 Z M 103.011719 187.847656 " fill-opacity="1" fill-rule="nonzero"/><path fill="#ffffff" d="M 108.347656 192.683594 C 108.03125 192.945312 107.5625 192.90625 107.296875 192.589844 L 104.902344 189.722656 C 104.636719 189.40625 104.679688 188.933594 104.996094 188.667969 C 105.3125 188.40625 105.78125 188.445312 106.046875 188.761719 L 108.441406 191.628906 C 108.707031 191.945312 108.664062 192.417969 108.347656 192.683594 Z M 108.347656 192.683594 " fill-opacity="1" fill-rule="nonzero"/><path fill="#ffffff" d="M 104.375 188.699219 L 105.140625 188.0625 L 106.121094 189.238281 L 105.359375 189.875 Z M 104.375 188.699219 " fill-opacity="1" fill-rule="nonzero"/><g fill="#ffffff" fill-opacity="1"><g transform="translate(136.779254, 186.753489)"><g><path d="M 16.1875 -19.84375 C 16.582031 -20.269531 16.914062 -20.65625 17.1875 -21 C 17.46875 -21.34375 17.6875 -21.660156 17.84375 -21.953125 C 18.007812 -22.253906 18.128906 -22.535156 18.203125 -22.796875 C 18.273438 -23.066406 18.3125 -23.332031 18.3125 -23.59375 C 18.3125 -24.007812 18.148438 -24.296875 17.828125 -24.453125 C 17.515625 -24.609375 16.976562 -24.6875 16.21875 -24.6875 L 16.21875 -26.609375 L 26.328125 -26.609375 L 26.328125 -24.6875 C 25.816406 -24.6875 25.332031 -24.609375 24.875 -24.453125 C 24.414062 -24.296875 23.96875 -24.070312 23.53125 -23.78125 C 23.09375 -23.488281 22.660156 -23.140625 22.234375 -22.734375 C 21.816406 -22.335938 21.390625 -21.894531 20.953125 -21.40625 L 16.03125 -16 L 22.96875 -4.984375 C 23.332031 -4.398438 23.679688 -3.914062 24.015625 -3.53125 C 24.347656 -3.15625 24.6875 -2.851562 25.03125 -2.625 C 25.375 -2.394531 25.71875 -2.226562 26.0625 -2.125 C 26.414062 -2.03125 26.800781 -1.984375 27.21875 -1.984375 L 27.359375 -1.984375 L 27.359375 0 L 25.359375 0 C 24.410156 0 23.578125 -0.03125 22.859375 -0.09375 C 22.148438 -0.15625 21.523438 -0.242188 20.984375 -0.359375 C 20.441406 -0.484375 19.972656 -0.640625 19.578125 -0.828125 C 19.191406 -1.015625 18.851562 -1.234375 18.5625 -1.484375 C 18.269531 -1.742188 18.003906 -2.035156 17.765625 -2.359375 C 17.535156 -2.679688 17.304688 -3.035156 17.078125 -3.421875 L 12.046875 -12 L 10.390625 -10.703125 L 10.390625 -4.40625 C 10.390625 -3.875 10.441406 -3.445312 10.546875 -3.125 C 10.648438 -2.8125 10.785156 -2.566406 10.953125 -2.390625 C 11.128906 -2.222656 11.335938 -2.113281 11.578125 -2.0625 C 11.816406 -2.007812 12.070312 -1.984375 12.34375 -1.984375 L 13.90625 -1.984375 L 13.90625 0 L 1.03125 0 L 1.03125 -1.984375 L 2.609375 -1.984375 C 2.867188 -1.984375 3.113281 -2.003906 3.34375 -2.046875 C 3.582031 -2.097656 3.785156 -2.195312 3.953125 -2.34375 C 4.128906 -2.5 4.265625 -2.726562 4.359375 -3.03125 C 4.460938 -3.332031 4.515625 -3.722656 4.515625 -4.203125 L 4.515625 -22.375 C 4.515625 -22.875 4.460938 -23.269531 4.359375 -23.5625 C 4.265625 -23.863281 4.128906 -24.09375 3.953125 -24.25 C 3.785156 -24.40625 3.582031 -24.507812 3.34375 -24.5625 C 3.113281 -24.613281 2.867188 -24.640625 2.609375 -24.640625 L 1.03125 -24.640625 L 1.03125 -26.609375 L 13.90625 -26.609375 L 13.90625 -24.640625 L 12.34375 -24.640625 C 12.070312 -24.640625 11.816406 -24.613281 11.578125 -24.5625 C 11.335938 -24.507812 11.128906 -24.394531 10.953125 -24.21875 C 10.785156 -24.050781 10.648438 -23.8125 10.546875 -23.5 C 10.441406 -23.1875 10.390625 -22.765625 10.390625 -22.234375 L 10.390625 -13.53125 Z M 16.1875 -19.84375 "/></g></g></g><g fill="#ffffff" fill-opacity="1"><g transform="translate(166.187349, 186.753489)"><g><path d="M 15.765625 0.359375 C 13.460938 0.359375 11.453125 0.03125 9.734375 -0.625 C 8.015625 -1.28125 6.582031 -2.207031 5.4375 -3.40625 C 4.300781 -4.601562 3.453125 -6.046875 2.890625 -7.734375 C 2.335938 -9.421875 2.0625 -11.289062 2.0625 -13.34375 C 2.0625 -15.351562 2.359375 -17.195312 2.953125 -18.875 C 3.546875 -20.550781 4.425781 -21.988281 5.59375 -23.1875 C 6.757812 -24.394531 8.207031 -25.332031 9.9375 -26 C 11.675781 -26.664062 13.6875 -27 15.96875 -27 C 17.519531 -27 18.875 -26.882812 20.03125 -26.65625 C 21.1875 -26.4375 22.15625 -26.128906 22.9375 -25.734375 C 23.726562 -25.347656 24.316406 -24.890625 24.703125 -24.359375 C 25.085938 -23.835938 25.28125 -23.269531 25.28125 -22.65625 C 25.28125 -22.226562 25.175781 -21.820312 24.96875 -21.4375 C 24.769531 -21.050781 24.460938 -20.710938 24.046875 -20.421875 C 23.628906 -20.128906 23.125 -19.898438 22.53125 -19.734375 C 21.9375 -19.578125 21.25 -19.5 20.46875 -19.5 C 20.46875 -20.25 20.375 -20.9375 20.1875 -21.5625 C 20.007812 -22.195312 19.726562 -22.738281 19.34375 -23.1875 C 18.957031 -23.632812 18.472656 -23.984375 17.890625 -24.234375 C 17.304688 -24.484375 16.625 -24.609375 15.84375 -24.609375 C 14.476562 -24.609375 13.316406 -24.359375 12.359375 -23.859375 C 11.410156 -23.367188 10.632812 -22.644531 10.03125 -21.6875 C 9.4375 -20.726562 9 -19.546875 8.71875 -18.140625 C 8.445312 -16.734375 8.3125 -15.132812 8.3125 -13.34375 C 8.3125 -11.550781 8.453125 -9.957031 8.734375 -8.5625 C 9.023438 -7.175781 9.488281 -6.007812 10.125 -5.0625 C 10.769531 -4.113281 11.597656 -3.394531 12.609375 -2.90625 C 13.617188 -2.414062 14.859375 -2.171875 16.328125 -2.171875 C 16.785156 -2.171875 17.242188 -2.1875 17.703125 -2.21875 C 18.171875 -2.257812 18.625 -2.328125 19.0625 -2.421875 L 19.0625 -7.90625 C 19.0625 -8.894531 18.835938 -9.582031 18.390625 -9.96875 C 17.941406 -10.363281 17.28125 -10.5625 16.40625 -10.5625 L 15.90625 -10.5625 L 15.90625 -12.53125 L 27.640625 -12.53125 L 27.640625 -10.5625 L 27.140625 -10.5625 C 26.765625 -10.5625 26.4375 -10.515625 26.15625 -10.421875 C 25.875 -10.328125 25.640625 -10.171875 25.453125 -9.953125 C 25.273438 -9.734375 25.144531 -9.445312 25.0625 -9.09375 C 24.976562 -8.738281 24.9375 -8.289062 24.9375 -7.75 L 24.9375 -1.640625 C 23.476562 -0.972656 22.007812 -0.472656 20.53125 -0.140625 C 19.050781 0.191406 17.460938 0.359375 15.765625 0.359375 Z M 15.765625 0.359375 "/></g></g></g><g fill="#ffffff" fill-opacity="1"><g transform="translate(196.905976, 186.753489)"><g><path d="M 21.84375 0 L 7.296875 -20.53125 L 7.296875 -4.40625 C 7.296875 -3.875 7.347656 -3.445312 7.453125 -3.125 C 7.554688 -2.8125 7.691406 -2.566406 7.859375 -2.390625 C 8.035156 -2.222656 8.238281 -2.113281 8.46875 -2.0625 C 8.707031 -2.007812 8.957031 -1.984375 9.21875 -1.984375 L 10.78125 -1.984375 L 10.78125 0 L 1.03125 0 L 1.03125 -1.984375 L 2.609375 -1.984375 C 2.867188 -1.984375 3.113281 -2.007812 3.34375 -2.0625 C 3.582031 -2.113281 3.785156 -2.222656 3.953125 -2.390625 C 4.128906 -2.566406 4.265625 -2.8125 4.359375 -3.125 C 4.460938 -3.445312 4.515625 -3.875 4.515625 -4.40625 L 4.515625 -22.375 C 4.515625 -22.875 4.460938 -23.269531 4.359375 -23.5625 C 4.253906 -23.863281 4.113281 -24.09375 3.9375 -24.25 C 3.757812 -24.40625 3.554688 -24.507812 3.328125 -24.5625 C 3.097656 -24.613281 2.859375 -24.640625 2.609375 -24.640625 L 1.03125 -24.640625 L 1.03125 -26.609375 L 9.328125 -26.609375 L 22.484375 -8.015625 L 22.484375 -22.375 C 22.484375 -22.875 22.429688 -23.269531 22.328125 -23.5625 C 22.222656 -23.863281 22.082031 -24.09375 21.90625 -24.25 C 21.726562 -24.40625 21.523438 -24.507812 21.296875 -24.5625 C 21.066406 -24.613281 20.820312 -24.640625 20.5625 -24.640625 L 19 -24.640625 L 19 -26.609375 L 28.75 -26.609375 L 28.75 -24.640625 L 27.171875 -24.640625 C 26.921875 -24.640625 26.679688 -24.613281 26.453125 -24.5625 C 26.222656 -24.507812 26.019531 -24.394531 25.84375 -24.21875 C 25.664062 -24.050781 25.523438 -23.8125 25.421875 -23.5 C 25.328125 -23.1875 25.28125 -22.765625 25.28125 -22.234375 L 25.28125 0 Z M 21.84375 0 "/></g></g></g><g fill="#ffffff" fill-opacity="1"><g transform="translate(228.334465, 186.753489)"><g><path d="M 9.84375 0.359375 C 8.175781 0.359375 6.78125 0.203125 5.65625 -0.109375 C 4.539062 -0.421875 3.644531 -0.828125 2.96875 -1.328125 C 2.300781 -1.828125 1.820312 -2.382812 1.53125 -3 C 1.25 -3.625 1.109375 -4.238281 1.109375 -4.84375 C 1.109375 -5.488281 1.226562 -6.03125 1.46875 -6.46875 C 1.707031 -6.90625 2.019531 -7.257812 2.40625 -7.53125 C 2.800781 -7.8125 3.25 -8.007812 3.75 -8.125 C 4.257812 -8.25 4.785156 -8.3125 5.328125 -8.3125 C 5.328125 -7.25 5.453125 -6.3125 5.703125 -5.5 C 5.960938 -4.695312 6.316406 -4.023438 6.765625 -3.484375 C 7.222656 -2.941406 7.765625 -2.535156 8.390625 -2.265625 C 9.015625 -1.992188 9.695312 -1.859375 10.4375 -1.859375 C 11.15625 -1.859375 11.800781 -1.957031 12.375 -2.15625 C 12.945312 -2.363281 13.429688 -2.648438 13.828125 -3.015625 C 14.234375 -3.378906 14.535156 -3.804688 14.734375 -4.296875 C 14.941406 -4.796875 15.046875 -5.328125 15.046875 -5.890625 C 15.046875 -6.523438 14.921875 -7.085938 14.671875 -7.578125 C 14.421875 -8.066406 14.035156 -8.519531 13.515625 -8.9375 C 13.003906 -9.363281 12.351562 -9.765625 11.5625 -10.140625 C 10.78125 -10.523438 9.867188 -10.9375 8.828125 -11.375 C 7.523438 -11.90625 6.425781 -12.453125 5.53125 -13.015625 C 4.644531 -13.585938 3.925781 -14.203125 3.375 -14.859375 C 2.832031 -15.515625 2.441406 -16.222656 2.203125 -16.984375 C 1.972656 -17.742188 1.859375 -18.582031 1.859375 -19.5 C 1.859375 -20.632812 2.085938 -21.660156 2.546875 -22.578125 C 3.003906 -23.503906 3.640625 -24.296875 4.453125 -24.953125 C 5.265625 -25.609375 6.226562 -26.113281 7.34375 -26.46875 C 8.46875 -26.820312 9.6875 -27 11 -27 C 12.363281 -27 13.539062 -26.882812 14.53125 -26.65625 C 15.53125 -26.4375 16.351562 -26.128906 17 -25.734375 C 17.65625 -25.347656 18.140625 -24.890625 18.453125 -24.359375 C 18.773438 -23.835938 18.9375 -23.269531 18.9375 -22.65625 C 18.9375 -22.226562 18.84375 -21.820312 18.65625 -21.4375 C 18.46875 -21.0625 18.179688 -20.734375 17.796875 -20.453125 C 17.410156 -20.179688 16.925781 -19.960938 16.34375 -19.796875 C 15.769531 -19.640625 15.101562 -19.5625 14.34375 -19.5625 C 14.34375 -20.09375 14.269531 -20.65625 14.125 -21.25 C 13.988281 -21.851562 13.765625 -22.410156 13.453125 -22.921875 C 13.140625 -23.441406 12.726562 -23.867188 12.21875 -24.203125 C 11.71875 -24.546875 11.109375 -24.71875 10.390625 -24.71875 C 9.890625 -24.71875 9.414062 -24.644531 8.96875 -24.5 C 8.519531 -24.351562 8.128906 -24.132812 7.796875 -23.84375 C 7.460938 -23.550781 7.195312 -23.191406 7 -22.765625 C 6.8125 -22.335938 6.71875 -21.84375 6.71875 -21.28125 C 6.71875 -20.757812 6.800781 -20.265625 6.96875 -19.796875 C 7.144531 -19.335938 7.457031 -18.882812 7.90625 -18.4375 C 8.363281 -18 8.988281 -17.554688 9.78125 -17.109375 C 10.582031 -16.671875 11.613281 -16.195312 12.875 -15.6875 C 14.144531 -15.164062 15.226562 -14.628906 16.125 -14.078125 C 17.019531 -13.535156 17.753906 -12.953125 18.328125 -12.328125 C 18.910156 -11.703125 19.332031 -11.015625 19.59375 -10.265625 C 19.851562 -9.523438 19.984375 -8.703125 19.984375 -7.796875 C 19.984375 -6.585938 19.742188 -5.484375 19.265625 -4.484375 C 18.796875 -3.484375 18.117188 -2.625 17.234375 -1.90625 C 16.347656 -1.195312 15.28125 -0.640625 14.03125 -0.234375 C 12.789062 0.160156 11.394531 0.359375 9.84375 0.359375 Z M 9.84375 0.359375 "/></g></g></g><g fill="#ffffff" fill-opacity="1"><g transform="translate(252.227404, 186.753489)"><g><path d="M 27.28125 -13.34375 C 27.28125 -11.289062 27.003906 -9.421875 26.453125 -7.734375 C 25.898438 -6.046875 25.085938 -4.601562 24.015625 -3.40625 C 22.941406 -2.207031 21.625 -1.28125 20.0625 -0.625 C 18.507812 0.03125 16.71875 0.359375 14.6875 0.359375 C 12.5625 0.359375 10.707031 0.03125 9.125 -0.625 C 7.539062 -1.28125 6.226562 -2.207031 5.1875 -3.40625 C 4.144531 -4.601562 3.363281 -6.046875 2.84375 -7.734375 C 2.320312 -9.429688 2.0625 -11.3125 2.0625 -13.375 C 2.0625 -15.4375 2.320312 -17.304688 2.84375 -18.984375 C 3.363281 -20.671875 4.144531 -22.109375 5.1875 -23.296875 C 6.238281 -24.484375 7.554688 -25.398438 9.140625 -26.046875 C 10.722656 -26.703125 12.585938 -27.03125 14.734375 -27.03125 C 16.742188 -27.03125 18.523438 -26.703125 20.078125 -26.046875 C 21.640625 -25.398438 22.953125 -24.476562 24.015625 -23.28125 C 25.085938 -22.09375 25.898438 -20.65625 26.453125 -18.96875 C 27.003906 -17.289062 27.28125 -15.414062 27.28125 -13.34375 Z M 8.3125 -13.34375 C 8.3125 -11.5625 8.425781 -9.972656 8.65625 -8.578125 C 8.894531 -7.179688 9.269531 -6 9.78125 -5.03125 C 10.289062 -4.070312 10.945312 -3.335938 11.75 -2.828125 C 12.5625 -2.316406 13.539062 -2.0625 14.6875 -2.0625 C 15.851562 -2.0625 16.835938 -2.316406 17.640625 -2.828125 C 18.453125 -3.335938 19.109375 -4.070312 19.609375 -5.03125 C 20.109375 -6 20.46875 -7.179688 20.6875 -8.578125 C 20.914062 -9.972656 21.03125 -11.5625 21.03125 -13.34375 C 21.03125 -15.125 20.914062 -16.710938 20.6875 -18.109375 C 20.46875 -19.503906 20.109375 -20.679688 19.609375 -21.640625 C 19.109375 -22.609375 18.457031 -23.34375 17.65625 -23.84375 C 16.851562 -24.351562 15.878906 -24.609375 14.734375 -24.609375 C 13.566406 -24.609375 12.578125 -24.351562 11.765625 -23.84375 C 10.953125 -23.34375 10.289062 -22.609375 9.78125 -21.640625 C 9.269531 -20.679688 8.894531 -19.503906 8.65625 -18.109375 C 8.425781 -16.710938 8.3125 -15.125 8.3125 -13.34375 Z M 8.3125 -13.34375 "/></g></g></g><g fill="#ffffff" fill-opacity="1"><g transform="translate(283.619495, 186.753489)"><g><path d="M 19.28125 -19.75 L 19.09375 -21.546875 C 18.96875 -22.535156 18.664062 -23.25 18.1875 -23.6875 C 17.707031 -24.125 17.085938 -24.34375 16.328125 -24.34375 L 10.390625 -24.34375 L 10.390625 -14.15625 L 19.234375 -14.15625 L 19.234375 -11.953125 L 10.390625 -11.953125 L 10.390625 -4.40625 C 10.390625 -3.875 10.441406 -3.445312 10.546875 -3.125 C 10.648438 -2.8125 10.785156 -2.566406 10.953125 -2.390625 C 11.128906 -2.222656 11.335938 -2.113281 11.578125 -2.0625 C 11.816406 -2.007812 12.070312 -1.984375 12.34375 -1.984375 L 14.65625 -1.984375 L 14.65625 0 L 1.03125 0 L 1.03125 -1.984375 L 2.609375 -1.984375 C 2.867188 -1.984375 3.113281 -2.003906 3.34375 -2.046875 C 3.582031 -2.097656 3.785156 -2.195312 3.953125 -2.34375 C 4.128906 -2.5 4.265625 -2.726562 4.359375 -3.03125 C 4.460938 -3.332031 4.515625 -3.722656 4.515625 -4.203125 L 4.515625 -22.375 C 4.515625 -22.875 4.460938 -23.269531 4.359375 -23.5625 C 4.265625 -23.863281 4.128906 -24.09375 3.953125 -24.25 C 3.785156 -24.40625 3.582031 -24.507812 3.34375 -24.5625 C 3.113281 -24.613281 2.867188 -24.640625 2.609375 -24.640625 L 1.03125 -24.640625 L 1.03125 -26.609375 L 21.703125 -26.609375 L 21.875 -19.75 Z M 19.28125 -19.75 "/></g></g></g><g fill="#ffffff" fill-opacity="1"><g transform="translate(308.822966, 186.753489)"><g><path d="M 15.125 -4.40625 C 15.125 -3.875 15.171875 -3.445312 15.265625 -3.125 C 15.367188 -2.8125 15.507812 -2.566406 15.6875 -2.390625 C 15.863281 -2.222656 16.066406 -2.113281 16.296875 -2.0625 C 16.523438 -2.007812 16.769531 -1.984375 17.03125 -1.984375 L 18.609375 -1.984375 L 18.609375 0 L 5.734375 0 L 5.734375 -1.984375 L 7.296875 -1.984375 C 7.578125 -1.984375 7.832031 -2.007812 8.0625 -2.0625 C 8.289062 -2.113281 8.488281 -2.222656 8.65625 -2.390625 C 8.832031 -2.566406 8.96875 -2.8125 9.0625 -3.125 C 9.164062 -3.445312 9.21875 -3.875 9.21875 -4.40625 L 9.21875 -24.34375 L 6.21875 -24.34375 C 5.664062 -24.34375 5.203125 -24.28125 4.828125 -24.15625 C 4.453125 -24.03125 4.144531 -23.851562 3.90625 -23.625 C 3.664062 -23.40625 3.488281 -23.128906 3.375 -22.796875 C 3.257812 -22.472656 3.175781 -22.109375 3.125 -21.703125 L 2.875 -19.390625 L 0.359375 -19.390625 L 0.5625 -26.609375 L 23.796875 -26.609375 L 23.96875 -19.390625 L 21.484375 -19.390625 L 21.203125 -21.703125 C 21.160156 -22.109375 21.078125 -22.472656 20.953125 -22.796875 C 20.835938 -23.128906 20.660156 -23.40625 20.421875 -23.625 C 20.191406 -23.851562 19.890625 -24.03125 19.515625 -24.15625 C 19.140625 -24.28125 18.671875 -24.34375 18.109375 -24.34375 L 15.125 -24.34375 Z M 15.125 -4.40625 "/></g></g></g><g fill="#ffffff" fill-opacity="1"><g transform="translate(127.087848, 216.753487)"><g><path d="M 9.84375 0.359375 C 8.175781 0.359375 6.78125 0.203125 5.65625 -0.109375 C 4.539062 -0.421875 3.644531 -0.828125 2.96875 -1.328125 C 2.300781 -1.828125 1.820312 -2.382812 1.53125 -3 C 1.25 -3.625 1.109375 -4.238281 1.109375 -4.84375 C 1.109375 -5.488281 1.226562 -6.03125 1.46875 -6.46875 C 1.707031 -6.90625 2.019531 -7.257812 2.40625 -7.53125 C 2.800781 -7.8125 3.25 -8.007812 3.75 -8.125 C 4.257812 -8.25 4.785156 -8.3125 5.328125 -8.3125 C 5.328125 -7.25 5.453125 -6.3125 5.703125 -5.5 C 5.960938 -4.695312 6.316406 -4.023438 6.765625 -3.484375 C 7.222656 -2.941406 7.765625 -2.535156 8.390625 -2.265625 C 9.015625 -1.992188 9.695312 -1.859375 10.4375 -1.859375 C 11.15625 -1.859375 11.800781 -1.957031 12.375 -2.15625 C 12.945312 -2.363281 13.429688 -2.648438 13.828125 -3.015625 C 14.234375 -3.378906 14.535156 -3.804688 14.734375 -4.296875 C 14.941406 -4.796875 15.046875 -5.328125 15.046875 -5.890625 C 15.046875 -6.523438 14.921875 -7.085938 14.671875 -7.578125 C 14.421875 -8.066406 14.035156 -8.519531 13.515625 -8.9375 C 13.003906 -9.363281 12.351562 -9.765625 11.5625 -10.140625 C 10.78125 -10.523438 9.867188 -10.9375 8.828125 -11.375 C 7.523438 -11.90625 6.425781 -12.453125 5.53125 -13.015625 C 4.644531 -13.585938 3.925781 -14.203125 3.375 -14.859375 C 2.832031 -15.515625 2.441406 -16.222656 2.203125 -16.984375 C 1.972656 -17.742188 1.859375 -18.582031 1.859375 -19.5 C 1.859375 -20.632812 2.085938 -21.660156 2.546875 -22.578125 C 3.003906 -23.503906 3.640625 -24.296875 4.453125 -24.953125 C 5.265625 -25.609375 6.226562 -26.113281 7.34375 -26.46875 C 8.46875 -26.820312 9.6875 -27 11 -27 C 12.363281 -27 13.539062 -26.882812 14.53125 -26.65625 C 15.53125 -26.4375 16.351562 -26.128906 17 -25.734375 C 17.65625 -25.347656 18.140625 -24.890625 18.453125 -24.359375 C 18.773438 -23.835938 18.9375 -23.269531 18.9375 -22.65625 C 18.9375 -22.226562 18.84375 -21.820312 18.65625 -21.4375 C 18.46875 -21.0625 18.179688 -20.734375 17.796875 -20.453125 C 17.410156 -20.179688 16.925781 -19.960938 16.34375 -19.796875 C 15.769531 -19.640625 15.101562 -19.5625 14.34375 -19.5625 C 14.34375 -20.09375 14.269531 -20.65625 14.125 -21.25 C 13.988281 -21.851562 13.765625 -22.410156 13.453125 -22.921875 C 13.140625 -23.441406 12.726562 -23.867188 12.21875 -24.203125 C 11.71875 -24.546875 11.109375 -24.71875 10.390625 -24.71875 C 9.890625 -24.71875 9.414062 -24.644531 8.96875 -24.5 C 8.519531 -24.351562 8.128906 -24.132812 7.796875 -23.84375 C 7.460938 -23.550781 7.195312 -23.191406 7 -22.765625 C 6.8125 -22.335938 6.71875 -21.84375 6.71875 -21.28125 C 6.71875 -20.757812 6.800781 -20.265625 6.96875 -19.796875 C 7.144531 -19.335938 7.457031 -18.882812 7.90625 -18.4375 C 8.363281 -18 8.988281 -17.554688 9.78125 -17.109375 C 10.582031 -16.671875 11.613281 -16.195312 12.875 -15.6875 C 14.144531 -15.164062 15.226562 -14.628906 16.125 -14.078125 C 17.019531 -13.535156 17.753906 -12.953125 18.328125 -12.328125 C 18.910156 -11.703125 19.332031 -11.015625 19.59375 -10.265625 C 19.851562 -9.523438 19.984375 -8.703125 19.984375 -7.796875 C 19.984375 -6.585938 19.742188 -5.484375 19.265625 -4.484375 C 18.796875 -3.484375 18.117188 -2.625 17.234375 -1.90625 C 16.347656 -1.195312 15.28125 -0.640625 14.03125 -0.234375 C 12.789062 0.160156 11.394531 0.359375 9.84375 0.359375 Z M 9.84375 0.359375 "/></g></g></g><g fill="#ffffff" fill-opacity="1"><g transform="translate(150.980784, 216.753487)"><g><path d="M 27.28125 -13.34375 C 27.28125 -11.289062 27.003906 -9.421875 26.453125 -7.734375 C 25.898438 -6.046875 25.085938 -4.601562 24.015625 -3.40625 C 22.941406 -2.207031 21.625 -1.28125 20.0625 -0.625 C 18.507812 0.03125 16.71875 0.359375 14.6875 0.359375 C 12.5625 0.359375 10.707031 0.03125 9.125 -0.625 C 7.539062 -1.28125 6.226562 -2.207031 5.1875 -3.40625 C 4.144531 -4.601562 3.363281 -6.046875 2.84375 -7.734375 C 2.320312 -9.429688 2.0625 -11.3125 2.0625 -13.375 C 2.0625 -15.4375 2.320312 -17.304688 2.84375 -18.984375 C 3.363281 -20.671875 4.144531 -22.109375 5.1875 -23.296875 C 6.238281 -24.484375 7.554688 -25.398438 9.140625 -26.046875 C 10.722656 -26.703125 12.585938 -27.03125 14.734375 -27.03125 C 16.742188 -27.03125 18.523438 -26.703125 20.078125 -26.046875 C 21.640625 -25.398438 22.953125 -24.476562 24.015625 -23.28125 C 25.085938 -22.09375 25.898438 -20.65625 26.453125 -18.96875 C 27.003906 -17.289062 27.28125 -15.414062 27.28125 -13.34375 Z M 8.3125 -13.34375 C 8.3125 -11.5625 8.425781 -9.972656 8.65625 -8.578125 C 8.894531 -7.179688 9.269531 -6 9.78125 -5.03125 C 10.289062 -4.070312 10.945312 -3.335938 11.75 -2.828125 C 12.5625 -2.316406 13.539062 -2.0625 14.6875 -2.0625 C 15.851562 -2.0625 16.835938 -2.316406 17.640625 -2.828125 C 18.453125 -3.335938 19.109375 -4.070312 19.609375 -5.03125 C 20.109375 -6 20.46875 -7.179688 20.6875 -8.578125 C 20.914062 -9.972656 21.03125 -11.5625 21.03125 -13.34375 C 21.03125 -15.125 20.914062 -16.710938 20.6875 -18.109375 C 20.46875 -19.503906 20.109375 -20.679688 19.609375 -21.640625 C 19.109375 -22.609375 18.457031 -23.34375 17.65625 -23.84375 C 16.851562 -24.351562 15.878906 -24.609375 14.734375 -24.609375 C 13.566406 -24.609375 12.578125 -24.351562 11.765625 -23.84375 C 10.953125 -23.34375 10.289062 -22.609375 9.78125 -21.640625 C 9.269531 -20.679688 8.894531 -19.503906 8.65625 -18.109375 C 8.425781 -16.710938 8.3125 -15.125 8.3125 -13.34375 Z M 8.3125 -13.34375 "/></g></g></g><g fill="#ffffff" fill-opacity="1"><g transform="translate(182.372873, 216.753487)"><g><path d="M 1.03125 0 L 1.03125 -1.984375 L 2.609375 -1.984375 C 2.878906 -1.984375 3.128906 -2.007812 3.359375 -2.0625 C 3.597656 -2.113281 3.800781 -2.222656 3.96875 -2.390625 C 4.132812 -2.566406 4.265625 -2.8125 4.359375 -3.125 C 4.460938 -3.445312 4.515625 -3.875 4.515625 -4.40625 L 4.515625 -22.234375 C 4.515625 -22.765625 4.460938 -23.1875 4.359375 -23.5 C 4.265625 -23.8125 4.132812 -24.050781 3.96875 -24.21875 C 3.800781 -24.394531 3.597656 -24.507812 3.359375 -24.5625 C 3.128906 -24.613281 2.878906 -24.640625 2.609375 -24.640625 L 1.03125 -24.640625 L 1.03125 -26.609375 L 13.90625 -26.609375 L 13.90625 -24.640625 L 12.34375 -24.640625 C 12.082031 -24.640625 11.832031 -24.613281 11.59375 -24.5625 C 11.363281 -24.507812 11.160156 -24.40625 10.984375 -24.25 C 10.816406 -24.09375 10.679688 -23.863281 10.578125 -23.5625 C 10.484375 -23.269531 10.4375 -22.875 10.4375 -22.375 L 10.4375 -2.28125 L 17.359375 -2.28125 C 18.234375 -2.28125 18.914062 -2.554688 19.40625 -3.109375 C 19.894531 -3.660156 20.25 -4.460938 20.46875 -5.515625 L 21.0625 -8.3125 L 23.15625 -8.3125 L 22.875 0 Z M 1.03125 0 "/></g></g></g><g fill="#ffffff" fill-opacity="1"><g transform="translate(208.795865, 216.753487)"><g><path d="M 27.25 -24.640625 L 25.65625 -24.640625 C 25.394531 -24.640625 25.148438 -24.613281 24.921875 -24.5625 C 24.691406 -24.507812 24.488281 -24.394531 24.3125 -24.21875 C 24.132812 -24.050781 23.992188 -23.8125 23.890625 -23.5 C 23.796875 -23.1875 23.75 -22.765625 23.75 -22.234375 L 23.75 -7.6875 C 23.75 -6.4375 23.570312 -5.3125 23.21875 -4.3125 C 22.863281 -3.320312 22.304688 -2.476562 21.546875 -1.78125 C 20.785156 -1.09375 19.816406 -0.5625 18.640625 -0.1875 C 17.460938 0.175781 16.0625 0.359375 14.4375 0.359375 C 12.8125 0.359375 11.359375 0.207031 10.078125 -0.09375 C 8.796875 -0.40625 7.710938 -0.898438 6.828125 -1.578125 C 5.941406 -2.265625 5.265625 -3.144531 4.796875 -4.21875 C 4.328125 -5.289062 4.09375 -6.59375 4.09375 -8.125 L 4.09375 -22.375 C 4.09375 -22.875 4.039062 -23.269531 3.9375 -23.5625 C 3.832031 -23.863281 3.691406 -24.09375 3.515625 -24.25 C 3.347656 -24.40625 3.148438 -24.507812 2.921875 -24.5625 C 2.691406 -24.613281 2.453125 -24.640625 2.203125 -24.640625 L 0.59375 -24.640625 L 0.59375 -26.609375 L 13.453125 -26.609375 L 13.453125 -24.640625 L 11.890625 -24.640625 C 11.628906 -24.640625 11.382812 -24.613281 11.15625 -24.5625 C 10.925781 -24.507812 10.722656 -24.394531 10.546875 -24.21875 C 10.367188 -24.050781 10.234375 -23.8125 10.140625 -23.5 C 10.046875 -23.1875 10 -22.765625 10 -22.234375 L 10 -7.828125 C 10 -6.785156 10.128906 -5.90625 10.390625 -5.1875 C 10.648438 -4.476562 11.019531 -3.910156 11.5 -3.484375 C 11.988281 -3.054688 12.570312 -2.75 13.25 -2.5625 C 13.925781 -2.375 14.691406 -2.28125 15.546875 -2.28125 C 16.367188 -2.28125 17.113281 -2.382812 17.78125 -2.59375 C 18.445312 -2.800781 19.015625 -3.128906 19.484375 -3.578125 C 19.953125 -4.035156 20.3125 -4.609375 20.5625 -5.296875 C 20.820312 -5.984375 20.953125 -6.800781 20.953125 -7.75 L 20.953125 -22.375 C 20.953125 -22.875 20.898438 -23.269531 20.796875 -23.5625 C 20.703125 -23.863281 20.566406 -24.09375 20.390625 -24.25 C 20.222656 -24.40625 20.019531 -24.507812 19.78125 -24.5625 C 19.550781 -24.613281 19.3125 -24.640625 19.0625 -24.640625 L 17.5 -24.640625 L 17.5 -26.609375 L 27.25 -26.609375 Z M 27.25 -24.640625 "/></g></g></g><g fill="#ffffff" fill-opacity="1"><g transform="translate(238.695407, 216.753487)"><g><path d="M 15.125 -4.40625 C 15.125 -3.875 15.171875 -3.445312 15.265625 -3.125 C 15.367188 -2.8125 15.507812 -2.566406 15.6875 -2.390625 C 15.863281 -2.222656 16.066406 -2.113281 16.296875 -2.0625 C 16.523438 -2.007812 16.769531 -1.984375 17.03125 -1.984375 L 18.609375 -1.984375 L 18.609375 0 L 5.734375 0 L 5.734375 -1.984375 L 7.296875 -1.984375 C 7.578125 -1.984375 7.832031 -2.007812 8.0625 -2.0625 C 8.289062 -2.113281 8.488281 -2.222656 8.65625 -2.390625 C 8.832031 -2.566406 8.96875 -2.8125 9.0625 -3.125 C 9.164062 -3.445312 9.21875 -3.875 9.21875 -4.40625 L 9.21875 -24.34375 L 6.21875 -24.34375 C 5.664062 -24.34375 5.203125 -24.28125 4.828125 -24.15625 C 4.453125 -24.03125 4.144531 -23.851562 3.90625 -23.625 C 3.664062 -23.40625 3.488281 -23.128906 3.375 -22.796875 C 3.257812 -22.472656 3.175781 -22.109375 3.125 -21.703125 L 2.875 -19.390625 L 0.359375 -19.390625 L 0.5625 -26.609375 L 23.796875 -26.609375 L 23.96875 -19.390625 L 21.484375 -19.390625 L 21.203125 -21.703125 C 21.160156 -22.109375 21.078125 -22.472656 20.953125 -22.796875 C 20.835938 -23.128906 20.660156 -23.40625 20.421875 -23.625 C 20.191406 -23.851562 19.890625 -24.03125 19.515625 -24.15625 C 19.140625 -24.28125 18.671875 -24.34375 18.109375 -24.34375 L 15.125 -24.34375 Z M 15.125 -4.40625 "/></g></g></g><g fill="#ffffff" fill-opacity="1"><g transform="translate(265.082002, 216.753487)"><g><path d="M 1.03125 0 L 1.03125 -1.984375 L 2.609375 -1.984375 C 2.878906 -1.984375 3.128906 -2.007812 3.359375 -2.0625 C 3.597656 -2.113281 3.800781 -2.222656 3.96875 -2.390625 C 4.132812 -2.566406 4.265625 -2.8125 4.359375 -3.125 C 4.460938 -3.445312 4.515625 -3.875 4.515625 -4.40625 L 4.515625 -22.203125 C 4.515625 -22.742188 4.460938 -23.171875 4.359375 -23.484375 C 4.265625 -23.796875 4.132812 -24.035156 3.96875 -24.203125 C 3.800781 -24.378906 3.597656 -24.492188 3.359375 -24.546875 C 3.128906 -24.597656 2.878906 -24.625 2.609375 -24.625 L 1.03125 -24.625 L 1.03125 -26.609375 L 13.90625 -26.609375 L 13.90625 -24.625 L 12.34375 -24.625 C 12.070312 -24.625 11.816406 -24.597656 11.578125 -24.546875 C 11.347656 -24.492188 11.144531 -24.378906 10.96875 -24.203125 C 10.800781 -24.035156 10.671875 -23.796875 10.578125 -23.484375 C 10.484375 -23.171875 10.4375 -22.742188 10.4375 -22.203125 L 10.4375 -4.40625 C 10.4375 -3.875 10.484375 -3.445312 10.578125 -3.125 C 10.671875 -2.8125 10.800781 -2.566406 10.96875 -2.390625 C 11.144531 -2.222656 11.347656 -2.113281 11.578125 -2.0625 C 11.816406 -2.007812 12.070312 -1.984375 12.34375 -1.984375 L 13.90625 -1.984375 L 13.90625 0 Z M 1.03125 0 "/></g></g></g><g fill="#ffffff" fill-opacity="1"><g transform="translate(282.076454, 216.753487)"><g><path d="M 27.28125 -13.34375 C 27.28125 -11.289062 27.003906 -9.421875 26.453125 -7.734375 C 25.898438 -6.046875 25.085938 -4.601562 24.015625 -3.40625 C 22.941406 -2.207031 21.625 -1.28125 20.0625 -0.625 C 18.507812 0.03125 16.71875 0.359375 14.6875 0.359375 C 12.5625 0.359375 10.707031 0.03125 9.125 -0.625 C 7.539062 -1.28125 6.226562 -2.207031 5.1875 -3.40625 C 4.144531 -4.601562 3.363281 -6.046875 2.84375 -7.734375 C 2.320312 -9.429688 2.0625 -11.3125 2.0625 -13.375 C 2.0625 -15.4375 2.320312 -17.304688 2.84375 -18.984375 C 3.363281 -20.671875 4.144531 -22.109375 5.1875 -23.296875 C 6.238281 -24.484375 7.554688 -25.398438 9.140625 -26.046875 C 10.722656 -26.703125 12.585938 -27.03125 14.734375 -27.03125 C 16.742188 -27.03125 18.523438 -26.703125 20.078125 -26.046875 C 21.640625 -25.398438 22.953125 -24.476562 24.015625 -23.28125 C 25.085938 -22.09375 25.898438 -20.65625 26.453125 -18.96875 C 27.003906 -17.289062 27.28125 -15.414062 27.28125 -13.34375 Z M 8.3125 -13.34375 C 8.3125 -11.5625 8.425781 -9.972656 8.65625 -8.578125 C 8.894531 -7.179688 9.269531 -6 9.78125 -5.03125 C 10.289062 -4.070312 10.945312 -3.335938 11.75 -2.828125 C 12.5625 -2.316406 13.539062 -2.0625 14.6875 -2.0625 C 15.851562 -2.0625 16.835938 -2.316406 17.640625 -2.828125 C 18.453125 -3.335938 19.109375 -4.070312 19.609375 -5.03125 C 20.109375 -6 20.46875 -7.179688 20.6875 -8.578125 C 20.914062 -9.972656 21.03125 -11.5625 21.03125 -13.34375 C 21.03125 -15.125 20.914062 -16.710938 20.6875 -18.109375 C 20.46875 -19.503906 20.109375 -20.679688 19.609375 -21.640625 C 19.109375 -22.609375 18.457031 -23.34375 17.65625 -23.84375 C 16.851562 -24.351562 15.878906 -24.609375 14.734375 -24.609375 C 13.566406 -24.609375 12.578125 -24.351562 11.765625 -23.84375 C 10.953125 -23.34375 10.289062 -22.609375 9.78125 -21.640625 C 9.269531 -20.679688 8.894531 -19.503906 8.65625 -18.109375 C 8.425781 -16.710938 8.3125 -15.125 8.3125 -13.34375 Z M 8.3125 -13.34375 "/></g></g></g><g fill="#ffffff" fill-opacity="1"><g transform="translate(313.468545, 216.753487)"><g><path d="M 21.84375 0 L 7.296875 -20.53125 L 7.296875 -4.40625 C 7.296875 -3.875 7.347656 -3.445312 7.453125 -3.125 C 7.554688 -2.8125 7.691406 -2.566406 7.859375 -2.390625 C 8.035156 -2.222656 8.238281 -2.113281 8.46875 -2.0625 C 8.707031 -2.007812 8.957031 -1.984375 9.21875 -1.984375 L 10.78125 -1.984375 L 10.78125 0 L 1.03125 0 L 1.03125 -1.984375 L 2.609375 -1.984375 C 2.867188 -1.984375 3.113281 -2.007812 3.34375 -2.0625 C 3.582031 -2.113281 3.785156 -2.222656 3.953125 -2.390625 C 4.128906 -2.566406 4.265625 -2.8125 4.359375 -3.125 C 4.460938 -3.445312 4.515625 -3.875 4.515625 -4.40625 L 4.515625 -22.375 C 4.515625 -22.875 4.460938 -23.269531 4.359375 -23.5625 C 4.253906 -23.863281 4.113281 -24.09375 3.9375 -24.25 C 3.757812 -24.40625 3.554688 -24.507812 3.328125 -24.5625 C 3.097656 -24.613281 2.859375 -24.640625 2.609375 -24.640625 L 1.03125 -24.640625 L 1.03125 -26.609375 L 9.328125 -26.609375 L 22.484375 -8.015625 L 22.484375 -22.375 C 22.484375 -22.875 22.429688 -23.269531 22.328125 -23.5625 C 22.222656 -23.863281 22.082031 -24.09375 21.90625 -24.25 C 21.726562 -24.40625 21.523438 -24.507812 21.296875 -24.5625 C 21.066406 -24.613281 20.820312 -24.640625 20.5625 -24.640625 L 19 -24.640625 L 19 -26.609375 L 28.75 -26.609375 L 28.75 -24.640625 L 27.171875 -24.640625 C 26.921875 -24.640625 26.679688 -24.613281 26.453125 -24.5625 C 26.222656 -24.507812 26.019531 -24.394531 25.84375 -24.21875 C 25.664062 -24.050781 25.523438 -23.8125 25.421875 -23.5 C 25.328125 -23.1875 25.28125 -22.765625 25.28125 -22.234375 L 25.28125 0 Z M 21.84375 0 "/></g></g></g></svg>